<svg width="32" height="32" viewBox="0 0 32 32" fill="none" xmlns="http://www.w3.org/2000/svg">
<path d="M26.7545 16.9102C26.7375 14.2883 28.1488 12.3094 31.0053 10.852C29.407 8.9302 26.9926 7.87286 23.8045 7.66568C20.7864 7.46564 17.4878 9.14452 16.2806 9.14452C15.0053 9.14452 12.0808 7.73712 9.78534 7.73712C5.04145 7.80142 0 10.9163 0 17.2531C0 19.1249 0.408076 21.0586 1.22423 23.0542C2.31243 25.6761 6.24017 32.1058 10.3379 31.9987C12.4803 31.9558 13.9936 30.7199 16.7821 30.7199C19.4857 30.7199 20.8884 31.9987 23.2774 31.9987C27.4091 31.9487 30.9628 26.1047 32 23.4757C26.457 21.2824 26.7545 17.046 26.7545 16.9102ZM21.9426 5.17951C24.2636 2.86481 24.051 0.757281 23.983 0C21.9341 0.100018 19.5622 1.17164 18.2104 2.49331C16.7226 3.90785 15.847 5.65817 16.034 7.62996C18.2529 7.77284 20.2763 6.81553 21.9426 5.17951Z" fill="black"/>
</svg>
