<svg width="57" height="57" viewBox="0 0 57 57" fill="none" xmlns="http://www.w3.org/2000/svg">
<g clip-path="url(#clip0)">
<path d="M51.3908 23.3689L44.9365 21.7874V12.7997C44.9365 12.4262 44.7255 12.0855 44.3895 11.9193L20.5031 0.100958C20.5031 0.100958 20.2958 -0.0142742 20.0083 0.00147975C19.7209 0.0172337 19.4966 0.181015 19.4966 0.181015L11.5482 5.84947C11.2898 6.03376 11.1358 6.33219 11.1358 6.64995V18.8139L5.51587 20.7979C5.12302 20.9362 4.85976 21.3085 4.85976 21.7245V48.2233C4.85976 48.5822 5.05624 48.9121 5.37032 49.0856L19.596 56.8812C19.596 56.8812 19.7742 56.9745 19.9331 56.9928C20.2229 57.0255 20.4182 56.9382 20.4182 56.9382L51.5085 45.0956C51.8894 44.95 52.1404 44.5838 52.1404 44.1764V24.3233C52.1392 23.8709 51.8286 23.4756 51.3908 23.3689ZM9.64044 47.162C9.64044 47.2748 9.58347 47.3779 9.49003 47.4385C9.43663 47.4725 9.3748 47.4907 9.31297 47.4907C9.2669 47.4907 9.21964 47.4808 9.17594 47.4615L5.70621 45.8716C5.58979 45.8183 5.51459 45.7017 5.51459 45.5744V40.2747C5.51459 40.1729 5.56195 40.0758 5.64319 40.014C5.72444 39.9521 5.82996 39.9327 5.92934 39.9594L9.39908 40.9223C9.54215 40.9624 9.63915 41.0922 9.63915 41.2388V47.1619H9.64044V47.162ZM9.64044 38.2761C9.64044 38.3731 9.59684 38.4652 9.52154 38.5283C9.46338 38.5769 9.38937 38.6035 9.31297 38.6035C9.29237 38.6035 9.27176 38.6023 9.25234 38.5987L5.7826 37.9462C5.62744 37.9171 5.51577 37.7813 5.51577 37.6236V32.3239C5.51577 32.2378 5.55095 32.1528 5.61278 32.0923C5.6746 32.0304 5.75952 31.9989 5.84562 31.9977L9.31535 32.0231C9.49489 32.0244 9.64034 32.1711 9.64034 32.3506V38.2761H9.64044ZM9.64044 29.3866C9.64044 29.5576 9.50945 29.6994 9.33963 29.714L5.8687 30.0003C5.86028 30.0003 5.85047 30.0015 5.84205 30.0015C5.7608 30.0015 5.68075 29.9712 5.62011 29.9154C5.55214 29.8535 5.51459 29.7674 5.51459 29.674V24.3754C5.51459 24.2263 5.61525 24.0965 5.75833 24.0577L9.22925 23.1456C9.32625 23.1202 9.43177 23.1408 9.51183 23.2038C9.59189 23.2657 9.63915 23.3614 9.63915 23.4634V29.3865H9.64044V29.3866ZM17.687 50.8475C17.687 50.9591 17.6301 51.0634 17.5366 51.1241C17.4832 51.1581 17.4214 51.1762 17.3596 51.1762C17.3135 51.1762 17.2662 51.1653 17.2237 51.1471L11.9834 48.747C11.867 48.6936 11.7931 48.5772 11.7931 48.4499V42.0186C11.7931 41.9168 11.8403 41.8197 11.9229 41.7579C12.0041 41.696 12.1096 41.6766 12.2091 41.7033L17.4494 43.1586C17.5913 43.1974 17.6895 43.3271 17.6895 43.4751V50.8474H17.687V50.8475ZM17.687 39.786C17.687 39.8842 17.6434 39.9764 17.5681 40.0382C17.5087 40.088 17.4348 40.1134 17.3584 40.1134C17.3378 40.1134 17.3184 40.1111 17.2978 40.1073L12.0574 39.1226C11.9022 39.0947 11.7906 38.9589 11.7906 38.8012V32.3893C11.7906 32.3032 11.8246 32.2183 11.8864 32.1577C11.9483 32.0959 12.0355 32.0632 12.1193 32.0632L17.3596 32.0838C17.5403 32.085 17.6858 32.2304 17.6858 32.4123V39.786H17.687ZM17.687 28.7232C17.687 28.8942 17.5561 29.036 17.3862 29.0507L12.1459 29.4812C12.1374 29.4825 12.1277 29.4825 12.1192 29.4825C12.0366 29.4825 11.9579 29.4522 11.8972 29.3964C11.8292 29.3346 11.7917 29.2472 11.7917 29.1562V22.725C11.7917 22.5758 11.8924 22.4473 12.0354 22.4085L17.2758 21.0307C17.374 21.0053 17.4783 21.0259 17.5583 21.089C17.6384 21.1508 17.6857 21.2466 17.6857 21.3485V28.7233H17.687V28.7232ZM17.687 13.9737C17.687 14.1023 17.6107 14.2211 17.4918 14.2732L13.8426 15.8898C13.8002 15.9092 13.7553 15.9177 13.7104 15.9177C13.6473 15.9177 13.5855 15.8995 13.5309 15.8656C13.4374 15.805 13.3817 15.7006 13.3817 15.5903V8.87393C13.3817 8.75999 13.4399 8.65446 13.5357 8.59383L17.1849 6.31991C17.2856 6.25808 17.4129 6.25323 17.5172 6.31267C17.6203 6.36965 17.6858 6.48002 17.6858 6.59892V13.9737H17.687ZM39.4319 13.4242C39.4319 13.3139 39.4865 13.2108 39.5785 13.1502C39.6695 13.0883 39.7871 13.0786 39.889 13.1234L42.779 14.3726C42.9003 14.4247 42.978 14.5423 42.978 14.6733V19.7123C42.978 19.8141 42.9283 19.9099 42.8481 19.9729C42.7911 20.0166 42.7208 20.0409 42.6492 20.0409C42.6214 20.0409 42.5923 20.0372 42.5644 20.0287L39.6744 19.249C39.5301 19.2101 39.433 19.0804 39.433 18.9324V13.4241H39.4319V13.4242ZM39.4319 24.2275C39.4319 24.1293 39.4743 24.0384 39.5483 23.9752C39.6235 23.9134 39.7205 23.888 39.8187 23.9037L42.7087 24.4313C42.8651 24.4592 42.9791 24.5963 42.9791 24.7539V29.7954C42.9791 29.8851 42.9415 29.9712 42.8748 30.0319C42.8129 30.0889 42.7329 30.1216 42.6503 30.1216C42.6455 30.1216 42.6382 30.1216 42.631 30.1216L39.7397 29.9542C39.5663 29.9445 39.4318 29.8014 39.4318 29.628V24.2275H39.4319ZM22.0542 5.91367C22.0542 5.8033 22.1099 5.70025 22.2021 5.63951C22.2943 5.57888 22.4107 5.56917 22.5114 5.61167L28.0452 8.00439C28.1652 8.05651 28.2429 8.17541 28.2429 8.3052V15.1864C28.2429 15.2907 28.1932 15.3877 28.1094 15.4496C28.0525 15.492 27.9845 15.5151 27.9154 15.5151C27.8827 15.5151 27.8499 15.5102 27.8184 15.4993L22.2846 13.8003C22.1476 13.7578 22.053 13.6304 22.053 13.4862V5.91367H22.0542ZM22.0542 21.0586C22.0542 20.9616 22.0979 20.8693 22.1719 20.8075C22.2459 20.7444 22.3453 20.7202 22.4411 20.736L27.9749 21.745C28.1313 21.773 28.2441 21.9087 28.2441 22.0676V28.9488C28.2441 29.0386 28.2065 29.1259 28.1409 29.1877C28.0803 29.246 28.0002 29.2763 27.9166 29.2763C27.9105 29.2763 27.9044 29.2763 27.8972 29.2751L22.3633 28.9585C22.1899 28.9477 22.0541 28.8045 22.0541 28.6311V21.0586H22.0542ZM22.3828 40.3196C22.304 40.3196 22.2264 40.2905 22.1669 40.2395C22.0954 40.1765 22.0554 40.0867 22.0554 39.9934V32.4208C22.0554 32.2402 22.2009 32.0934 22.3815 32.0923L27.9154 32.0644C28.0015 32.0667 28.0864 32.0971 28.1483 32.159C28.2101 32.2208 28.2453 32.3045 28.2453 32.3906V39.2717C28.2453 39.4367 28.1228 39.5761 27.9603 39.598L22.4265 40.3184C22.4108 40.3196 22.3962 40.3196 22.3828 40.3196ZM34.878 50.5115C34.878 50.6474 34.7931 50.7687 34.6669 50.8172L25.399 54.3414C25.3614 54.3559 25.3226 54.362 25.2825 54.362C25.217 54.362 25.1515 54.3414 25.097 54.3038C25.0084 54.242 24.9551 54.1413 24.9551 54.0334V43.2181C24.9551 43.0604 25.0666 42.9259 25.2206 42.8954L34.4873 41.1091C34.5843 41.0898 34.6837 41.1163 34.7602 41.1795C34.8354 41.2413 34.879 41.3335 34.879 41.4317V50.5116H34.878V50.5115ZM36.7468 38.1645C36.7468 38.3295 36.6255 38.4689 36.463 38.4908L32.5664 38.9977C32.5519 38.9989 32.5386 39.0001 32.524 39.0001C32.4463 39.0001 32.3676 38.9722 32.3081 38.92C32.2365 38.8569 32.1964 38.7671 32.1964 38.6738V32.3675C32.1964 32.1868 32.3408 32.0401 32.524 32.0389L36.4182 32.0183C36.5127 32.017 36.5892 32.0523 36.6522 32.1141C36.7141 32.1759 36.7468 32.2585 36.7468 32.3457V38.1645ZM36.7468 29.4363C36.7468 29.5249 36.7117 29.6121 36.6449 29.6728C36.5831 29.731 36.503 29.7625 36.4194 29.7625C36.4122 29.7625 36.4073 29.7625 36.4 29.7625L32.5034 29.5381C32.3313 29.5284 32.1954 29.3853 32.1954 29.2106V22.9079C32.1954 22.8109 32.238 22.7187 32.3142 22.6569C32.3883 22.5937 32.4877 22.5683 32.5823 22.5853L36.4788 23.2959C36.6353 23.3239 36.7469 23.4596 36.7469 23.6185V29.4363H36.7468ZM36.7468 17.7999C36.7468 17.9042 36.697 18.0024 36.6146 18.0642C36.5576 18.1055 36.4885 18.1285 36.4206 18.1285C36.3878 18.1285 36.3563 18.1237 36.3236 18.114L32.4294 16.917C32.2924 16.8746 32.1977 16.7472 32.1977 16.6029V10.2977C32.1977 10.1862 32.2523 10.0843 32.3445 10.0224C32.4366 9.96294 32.5529 9.95204 32.6549 9.99573L36.5515 11.6802C36.6728 11.7323 36.7479 11.8499 36.7479 11.9809V17.7998H36.7468V17.7999ZM44.2804 46.9364C44.2804 47.0721 44.198 47.1946 44.0694 47.2432L38.2675 49.4359C38.2299 49.4504 38.1911 49.4577 38.1523 49.4577C38.0855 49.4577 38.0189 49.4371 37.9644 49.3983C37.8771 49.3377 37.8225 49.237 37.8225 49.1291V40.7391C37.8225 40.5815 37.9341 40.4469 38.0892 40.4165L43.8922 39.2984C43.9868 39.2802 44.0862 39.3056 44.1626 39.3687C44.2378 39.4306 44.2814 39.5228 44.2814 39.621V46.9364H44.2804ZM44.8481 25.2135C44.8481 25.1165 44.8905 25.0255 44.9669 24.9624C45.0396 24.8994 45.1403 24.8751 45.2349 24.8909L47.4663 25.2984C47.6204 25.3274 47.7343 25.4621 47.7343 25.621V30.067C47.7343 30.1567 47.6991 30.244 47.6324 30.3035C47.5706 30.3604 47.4906 30.3921 47.4069 30.3921C47.3997 30.3921 47.3949 30.3921 47.3875 30.3921L45.1585 30.266C44.9827 30.2551 44.8481 30.112 44.8481 29.9386V25.2135ZM45.1779 37.3519C45.0978 37.3519 45.0215 37.3241 44.9596 37.2708C44.888 37.2089 44.8481 37.1192 44.8481 37.0246L44.8553 32.3009C44.8553 32.2136 44.8904 32.1298 44.9523 32.0692C45.0141 32.0074 45.0966 31.9734 45.1814 31.9734H45.1837L47.4056 31.9806C47.5875 31.9806 47.733 32.1274 47.733 32.3082V36.7348C47.733 36.8996 47.6117 37.0391 47.4493 37.0609L45.2178 37.3508C45.2034 37.3507 45.1924 37.3519 45.1779 37.3519ZM50.6255 44.5242C50.6255 44.6601 50.5407 44.7826 50.4146 44.8311L46.4427 46.341C46.4051 46.3555 46.3651 46.3628 46.3263 46.3628C46.2596 46.3628 46.1941 46.3435 46.1395 46.3046C46.0522 46.244 45.9976 46.1433 45.9976 46.0353V39.165C45.9976 39.0074 46.1092 38.8728 46.2631 38.8424L50.235 38.0772C50.332 38.0578 50.4314 38.0844 50.5079 38.1463C50.5818 38.2094 50.6267 38.3014 50.6267 38.3985V44.5241H50.6255V44.5242ZM51.4831 36.246C51.4831 36.4109 51.3617 36.5504 51.1993 36.571L49.4299 36.8013C49.4154 36.8026 49.402 36.8037 49.3874 36.8037C49.3098 36.8037 49.231 36.7746 49.1715 36.7237C49.0999 36.6605 49.0599 36.5709 49.0599 36.4775V32.2802C49.0599 32.0995 49.2067 31.9527 49.3862 31.9516L51.1581 31.9418C51.2429 31.9369 51.3291 31.9758 51.3897 32.0377C51.4515 32.0995 51.4867 32.182 51.4867 32.2694L51.4831 36.246ZM51.386 30.5193C51.3241 30.5775 51.2441 30.609 51.1604 30.609C51.1532 30.609 51.1459 30.609 51.141 30.6078L49.3668 30.5071C49.1934 30.4962 49.0588 30.353 49.0588 30.1796V25.9811C49.0588 25.8841 49.1013 25.7919 49.1776 25.7289C49.2516 25.667 49.351 25.6416 49.4456 25.6573L51.215 25.9811C51.3691 26.009 51.4831 26.1448 51.4831 26.3038L51.4879 30.2792C51.4878 30.3713 51.4502 30.4574 51.386 30.5193Z" fill="white"/>
</g>
<defs>
<clipPath id="clip0">
<rect width="57" height="57" fill="white"/>
</clipPath>
</defs>
</svg>
